<?xml version="1.0" encoding="UTF-8" standalone="no"?>
<svg
   xmlns:dc="http://purl.org/dc/elements/1.1/"
   xmlns:cc="http://creativecommons.org/ns#"
   xmlns:rdf="http://www.w3.org/1999/02/22-rdf-syntax-ns#"
   xmlns:svg="http://www.w3.org/2000/svg"
   xmlns="http://www.w3.org/2000/svg"
   xmlns:sodipodi="http://sodipodi.sourceforge.net/DTD/sodipodi-0.dtd"
   xmlns:inkscape="http://www.inkscape.org/namespaces/inkscape"
   inkscape:version="1.0 (4035a4f, 2020-05-01)"
   sodipodi:docname="tdrava_logo.svg"
   viewBox="0 0 633.78119 90.126533"
   height="90.126534"
   width="633.78119"
   xml:space="preserve"
   id="svg833"
   version="1.1"><metadata
     id="metadata839"><rdf:RDF><cc:Work
         rdf:about=""><dc:format>image/svg+xml</dc:format><dc:type
           rdf:resource="http://purl.org/dc/dcmitype/StillImage" /><dc:title></dc:title></cc:Work></rdf:RDF></metadata><defs
     id="defs837"><clipPath
       id="clipPath851"
       clipPathUnits="userSpaceOnUse"><path
         id="path849"
         d="M 0,0 H 708.661 V 274.948 H 0 Z" /></clipPath></defs><sodipodi:namedview
     inkscape:current-layer="g841"
     inkscape:window-maximized="0"
     inkscape:window-y="226"
     inkscape:window-x="2496"
     inkscape:cy="109.78172"
     inkscape:cx="52.978657"
     inkscape:zoom="5.6557366"
     showgrid="false"
     id="namedview835"
     inkscape:window-height="959"
     inkscape:window-width="1420"
     inkscape:pageshadow="2"
     inkscape:pageopacity="0"
     guidetolerance="10"
     gridtolerance="10"
     objecttolerance="10"
     borderopacity="1"
     bordercolor="#666666"
     pagecolor="#ffffff" /><g
     transform="matrix(1.3333333,0,0,-1.3333333,-155.5508,228.36159)"
     inkscape:label="tdrava_logo"
     inkscape:groupmode="layer"
     id="g841"><g
       id="g843" /><g
       id="g845"><g
         clip-path="url(#clipPath851)"
         id="g847"><path
           id="path853"
           style="fill:#344d63;fill-opacity:1;fill-rule:nonzero;stroke:none"
           d="m 383.533,103.825 h 1.067 v 66.15 h -1.067 z" /><path
           id="path855"
           style="fill:#344d63;fill-opacity:1;fill-rule:nonzero;stroke:none"
           d="m 149.4551,170.374 h -2.294 -30.498 v -11.582 h 17.896 c 0,-0.06 -0.009,-0.119 -0.009,-0.179 v -54.851 h 13.416 v 55.03 h 19.051 v 11.582 z" /><path
           id="path857"
           style="fill:#344d63;fill-opacity:1;fill-rule:nonzero;stroke:none"
           d="m 218.8867,145.0576 c 0,7.541 -5.455,13.735 -12.253,13.735 h -17.262 v -43.45 h 17.262 c 6.798,0 12.253,6.195 12.253,13.736 z m -30.319,25.316 h 18.066 c 14.131,0 25.669,-11.312 25.669,-25.316 v -15.979 c 0,-14.006 -11.538,-25.317 -25.669,-25.317 h -30.678 v 54.852 c 0,6.463 5.635,11.76 12.612,11.76" /><path
           id="path859"
           style="fill:#344d63;fill-opacity:1;fill-rule:nonzero;stroke:none"
           d="m 256.1802,134.1948 v 24.598 h 17.261 c 6.797,0 12.254,-3.501 12.254,-11.042 v -2.514 c 0,-7.541 -5.457,-11.042 -12.254,-11.042 z m 26.474,-10.235 c 9.659,2.874 16.457,10.504 16.457,21.277 v 2.514 c 0,14.004 -11.538,22.623 -25.67,22.623 h -18.067 c -6.975,0 -12.61,-5.297 -12.61,-11.761 v -54.851 h 13.416 v 18.853 h 11.18 l 16.546,-18.853 h 16.725 z" /><path
           id="path861"
           style="fill:#ab182d;fill-opacity:1;fill-rule:nonzero;stroke:none"
           d="m 350.5347,159.5112 c -2.325,6.643 -6.35,11.76 -13.326,11.76 -6.976,0 -11.002,-5.117 -13.327,-11.76 l -19.497,-55.749 h 14.31 l 3.096,8.886 4.034,11.581 11.384,32.678 18.514,-53.145 h 14.31 z" /><path
           id="path863"
           style="fill:#344d63;fill-opacity:1;fill-rule:nonzero;stroke:none"
           d="m 409.8809,119.9843 c 0,-0.029 -0.003,-0.048 -0.011,-0.056 -0.007,-0.006 -0.01,-0.025 -0.01,-0.054 l -3.559,-13.932 c -0.131,-0.519 -0.319,-0.926 -0.565,-1.222 -0.246,-0.297 -0.51,-0.522 -0.792,-0.677 -0.282,-0.156 -0.572,-0.256 -0.868,-0.3 -0.297,-0.045 -0.561,-0.067 -0.793,-0.067 -0.231,0 -0.495,0.022 -0.792,0.067 -0.297,0.044 -0.586,0.144 -0.868,0.3 -0.282,0.155 -0.546,0.38 -0.792,0.677 -0.246,0.296 -0.433,0.703 -0.564,1.222 l -3.559,13.932 c 0,0.029 -0.004,0.048 -0.012,0.054 -0.006,0.008 -0.01,0.027 -0.01,0.056 0,0.119 0.036,0.211 0.108,0.278 0.072,0.067 0.167,0.1 0.282,0.1 h 2.301 c 0.102,0 0.189,-0.037 0.261,-0.111 0.072,-0.075 0.123,-0.163 0.151,-0.267 l 3.148,-13.353 c 0.028,-0.133 0.065,-0.226 0.108,-0.278 0.043,-0.052 0.123,-0.077 0.238,-0.077 0.117,0 0.196,0.025 0.24,0.077 0.043,0.052 0.079,0.145 0.108,0.278 l 3.146,13.353 c 0.03,0.104 0.081,0.192 0.153,0.267 0.072,0.074 0.159,0.111 0.261,0.111 h 2.299 c 0.117,0 0.21,-0.033 0.283,-0.1 0.072,-0.067 0.108,-0.159 0.108,-0.278" /><path
           id="path865"
           style="fill:#344d63;fill-opacity:1;fill-rule:nonzero;stroke:none"
           d="m 414.917,103.9873 c -0.087,-0.089 -0.188,-0.133 -0.305,-0.133 h -2.148 c -0.115,0 -0.217,0.044 -0.304,0.133 -0.087,0.089 -0.13,0.192 -0.13,0.312 v 15.641 c 0,0.118 0.043,0.218 0.13,0.3 0.087,0.081 0.189,0.122 0.304,0.122 h 2.148 c 0.117,0 0.218,-0.041 0.305,-0.122 0.086,-0.082 0.13,-0.182 0.13,-0.3 v -15.641 c 0,-0.12 -0.044,-0.223 -0.13,-0.312" /><path
           id="path867"
           style="fill:#344d63;fill-opacity:1;fill-rule:nonzero;stroke:none"
           d="m 426.4834,115.5185 c 0,0.845 -0.271,1.452 -0.811,1.822 -0.54,0.37 -1.35,0.556 -2.431,0.556 -0.115,0 -0.263,-0.004 -0.443,-0.012 -0.18,-0.008 -0.364,-0.014 -0.551,-0.021 -0.187,-0.008 -0.364,-0.016 -0.53,-0.023 -0.165,-0.008 -0.298,-0.018 -0.399,-0.033 v -4.999 c 0.086,0 0.22,-0.004 0.399,-0.012 0.181,-0.007 0.368,-0.014 0.563,-0.022 0.194,-0.007 0.381,-0.015 0.561,-0.022 0.18,-0.007 0.314,-0.011 0.4,-0.011 1.124,0 1.945,0.185 2.464,0.555 0.519,0.37 0.778,1.044 0.778,2.023 z m 3.516,-11.397 c 0,-0.178 -0.086,-0.267 -0.26,-0.267 h -2.649 c -0.115,0 -0.202,0.044 -0.259,0.133 -0.059,0.088 -0.117,0.191 -0.174,0.309 l -3.112,5.912 h -0.304 c -0.288,0 -0.619,0.011 -0.993,0.034 -0.375,0.022 -0.685,0.04 -0.93,0.055 v -6.001 c 0,-0.118 -0.04,-0.221 -0.119,-0.309 -0.08,-0.089 -0.178,-0.133 -0.293,-0.133 h -2.171 c -0.115,0 -0.217,0.044 -0.304,0.133 -0.087,0.089 -0.13,0.192 -0.13,0.311 v 15.286 c 0,0.222 0.062,0.381 0.185,0.478 0.122,0.096 0.293,0.159 0.51,0.188 0.564,0.089 1.215,0.16 1.953,0.211 0.738,0.052 1.505,0.078 2.301,0.078 0.838,0 1.634,-0.084 2.386,-0.255 0.753,-0.17 1.414,-0.448 1.987,-0.833 0.571,-0.385 1.027,-0.9 1.367,-1.544 0.34,-0.645 0.51,-1.441 0.51,-2.389 v -0.199 c 0,-1.186 -0.266,-2.149 -0.798,-2.889 -0.532,-0.741 -1.25,-1.289 -2.154,-1.644 l 3.408,-6.488 c 0.029,-0.045 0.043,-0.104 0.043,-0.177" /><path
           id="path869"
           style="fill:#344d63;fill-opacity:1;fill-rule:nonzero;stroke:none"
           d="m 442.7393,117.8964 c -0.087,-0.074 -0.188,-0.111 -0.304,-0.111 h -3.799 v -13.487 c 0,-0.119 -0.043,-0.222 -0.129,-0.311 -0.087,-0.089 -0.189,-0.133 -0.304,-0.133 h -2.149 c -0.116,0 -0.217,0.044 -0.303,0.133 -0.087,0.089 -0.131,0.192 -0.131,0.311 v 13.487 h -3.798 c -0.116,0 -0.217,0.037 -0.304,0.111 -0.087,0.073 -0.13,0.17 -0.13,0.288 v 1.756 c 0,0.118 0.043,0.218 0.13,0.3 0.087,0.081 0.188,0.122 0.304,0.122 h 10.613 c 0.116,0 0.217,-0.041 0.304,-0.122 0.087,-0.082 0.13,-0.182 0.13,-0.3 v -1.756 c 0,-0.118 -0.043,-0.215 -0.13,-0.288" /><path
           id="path871"
           style="fill:#344d63;fill-opacity:1;fill-rule:nonzero;stroke:none"
           d="m 456.4229,106.9873 c -0.297,-0.8 -0.709,-1.444 -1.237,-1.934 -0.529,-0.488 -1.158,-0.84 -1.888,-1.054 -0.73,-0.215 -1.53,-0.323 -2.398,-0.323 -0.869,0 -1.668,0.108 -2.399,0.323 -0.73,0.214 -1.359,0.566 -1.888,1.054 -0.528,0.49 -0.94,1.134 -1.237,1.934 -0.297,0.8 -0.444,1.792 -0.444,2.977 v 9.976 c 0,0.118 0.043,0.218 0.13,0.3 0.087,0.081 0.187,0.122 0.303,0.122 h 2.149 c 0.116,0 0.218,-0.041 0.304,-0.122 0.086,-0.082 0.13,-0.182 0.13,-0.301 v -9.991 c 0,-0.639 0.043,-1.191 0.13,-1.658 0.087,-0.468 0.242,-0.857 0.467,-1.168 0.224,-0.313 0.528,-0.542 0.911,-0.691 0.384,-0.148 0.864,-0.222 1.444,-0.222 0.593,0 1.078,0.074 1.454,0.222 0.376,0.149 0.676,0.378 0.901,0.691 0.224,0.311 0.379,0.7 0.466,1.168 0.087,0.467 0.131,1.019 0.131,1.658 v 9.991 c 0,0.119 0.043,0.219 0.13,0.301 0.087,0.081 0.187,0.122 0.303,0.122 h 2.149 c 0.116,0 0.218,-0.041 0.303,-0.122 0.087,-0.082 0.131,-0.182 0.131,-0.3 v -9.976 c 0,-1.185 -0.148,-2.177 -0.445,-2.977" /><path
           id="path873"
           style="fill:#344d63;fill-opacity:1;fill-rule:nonzero;stroke:none"
           d="m 465.7441,117.5849 c -0.029,0.134 -0.065,0.226 -0.108,0.278 -0.044,0.052 -0.123,0.077 -0.24,0.077 -0.115,0 -0.195,-0.025 -0.238,-0.077 -0.044,-0.052 -0.08,-0.144 -0.108,-0.278 l -1.563,-6.599 h 3.819 z m 6.25,-13.353 c 0,-0.119 -0.036,-0.211 -0.108,-0.278 -0.073,-0.066 -0.166,-0.099 -0.283,-0.099 h -2.299 c -0.102,0 -0.189,0.036 -0.261,0.111 -0.072,0.073 -0.123,0.162 -0.153,0.266 l -0.998,4.221 h -4.991 l -0.999,-4.221 c -0.029,-0.104 -0.079,-0.193 -0.151,-0.266 -0.073,-0.075 -0.16,-0.111 -0.261,-0.111 h -2.301 c -0.115,0 -0.21,0.033 -0.282,0.099 -0.072,0.067 -0.108,0.159 -0.108,0.278 0,0.014 0.004,0.03 0.01,0.044 0.008,0.015 0.011,0.038 0.011,0.067 l 3.56,13.93 c 0.131,0.519 0.318,0.926 0.564,1.223 0.246,0.296 0.51,0.522 0.792,0.678 0.282,0.155 0.571,0.255 0.868,0.3 0.297,0.044 0.561,0.066 0.792,0.066 0.232,0 0.496,-0.022 0.792,-0.066 0.297,-0.045 0.587,-0.145 0.868,-0.3 0.283,-0.156 0.547,-0.382 0.793,-0.678 0.246,-0.297 0.434,-0.704 0.564,-1.223 l 3.56,-13.93 c 0,-0.029 0.003,-0.052 0.01,-0.067 0.008,-0.014 0.011,-0.03 0.011,-0.044" /><path
           id="path875"
           style="fill:#344d63;fill-opacity:1;fill-rule:nonzero;stroke:none"
           d="m 483.0732,104.121 c -0.065,-0.06 -0.178,-0.104 -0.336,-0.134 -0.16,-0.044 -0.388,-0.085 -0.684,-0.122 -0.296,-0.037 -0.619,-0.07 -0.965,-0.099 -0.348,-0.03 -0.703,-0.052 -1.064,-0.068 -0.362,-0.014 -0.687,-0.021 -0.976,-0.021 -0.71,0 -1.369,0.059 -1.976,0.177 -0.607,0.119 -1.136,0.344 -1.584,0.678 -0.449,0.333 -0.803,0.796 -1.063,1.389 -0.261,0.592 -0.391,1.362 -0.391,2.31 v 11.687 c 0,0.118 0.043,0.223 0.13,0.311 0.087,0.089 0.188,0.133 0.304,0.133 h 2.148 c 0.116,0 0.218,-0.044 0.305,-0.133 0.086,-0.088 0.13,-0.193 0.13,-0.311 v -11.687 c 0,-0.741 0.123,-1.244 0.369,-1.51 0.245,-0.267 0.686,-0.401 1.323,-0.401 h 3.994 c 0.115,0 0.217,-0.044 0.304,-0.133 0.087,-0.088 0.13,-0.193 0.13,-0.311 v -1.422 c 0,-0.163 -0.033,-0.274 -0.098,-0.333" /><path
           id="path877"
           style="fill:#344d63;fill-opacity:1;fill-rule:nonzero;stroke:none"
           d="m 501.8145,117.5849 c -0.029,0.134 -0.065,0.226 -0.108,0.278 -0.044,0.052 -0.123,0.077 -0.24,0.077 -0.115,0 -0.195,-0.025 -0.238,-0.077 -0.044,-0.052 -0.08,-0.144 -0.108,-0.278 l -1.563,-6.599 h 3.819 z m 6.25,-13.353 c 0,-0.119 -0.036,-0.211 -0.108,-0.278 -0.073,-0.066 -0.166,-0.099 -0.283,-0.099 h -2.299 c -0.102,0 -0.189,0.036 -0.261,0.111 -0.072,0.073 -0.123,0.162 -0.153,0.266 l -0.998,4.221 h -4.991 l -0.999,-4.221 c -0.029,-0.104 -0.079,-0.193 -0.151,-0.266 -0.073,-0.075 -0.16,-0.111 -0.261,-0.111 h -2.301 c -0.115,0 -0.21,0.033 -0.282,0.099 -0.072,0.067 -0.108,0.159 -0.108,0.278 0,0.014 0.004,0.03 0.01,0.044 0.008,0.015 0.011,0.038 0.011,0.067 l 3.56,13.93 c 0.131,0.519 0.318,0.926 0.564,1.223 0.246,0.296 0.51,0.522 0.792,0.678 0.282,0.155 0.571,0.255 0.868,0.3 0.297,0.044 0.561,0.066 0.792,0.066 0.232,0 0.496,-0.022 0.792,-0.066 0.297,-0.045 0.587,-0.145 0.868,-0.3 0.283,-0.156 0.547,-0.382 0.793,-0.678 0.246,-0.297 0.434,-0.704 0.564,-1.223 l 3.56,-13.93 c 0,-0.029 0.003,-0.052 0.01,-0.067 0.008,-0.014 0.011,-0.03 0.011,-0.044" /><path
           id="path879"
           style="fill:#344d63;fill-opacity:1;fill-rule:nonzero;stroke:none"
           d="m 519.5664,104.1982 c -0.086,-0.066 -0.202,-0.122 -0.347,-0.166 -0.087,-0.016 -0.235,-0.045 -0.445,-0.089 -0.21,-0.045 -0.467,-0.086 -0.77,-0.122 -0.304,-0.037 -0.644,-0.07 -1.02,-0.101 -0.377,-0.029 -0.774,-0.043 -1.194,-0.043 -0.651,0 -1.338,0.096 -2.062,0.289 -0.724,0.191 -1.383,0.544 -1.978,1.054 -0.597,0.511 -1.093,1.203 -1.488,2.077 -0.395,0.874 -0.592,2 -0.592,3.378 v 3.266 c 0,1.393 0.197,2.529 0.592,3.411 0.395,0.881 0.891,1.573 1.488,2.077 0.595,0.503 1.254,0.848 1.978,1.033 0.724,0.185 1.411,0.278 2.062,0.278 0.42,0 0.817,-0.015 1.194,-0.044 0.376,-0.03 0.716,-0.064 1.02,-0.101 0.303,-0.037 0.56,-0.074 0.77,-0.111 0.21,-0.037 0.358,-0.07 0.445,-0.1 0.145,-0.044 0.261,-0.099 0.347,-0.167 0.087,-0.066 0.131,-0.18 0.131,-0.343 v -1.49 c 0,-0.132 -0.033,-0.244 -0.098,-0.333 -0.065,-0.089 -0.178,-0.132 -0.337,-0.132 h -0.043 c -0.188,0.014 -0.416,0.033 -0.683,0.055 -0.269,0.022 -0.554,0.04 -0.858,0.055 -0.303,0.015 -0.615,0.03 -0.933,0.045 -0.319,0.014 -0.622,0.022 -0.911,0.022 -0.45,0 -0.869,-0.067 -1.259,-0.2 -0.391,-0.134 -0.724,-0.363 -0.998,-0.688 -0.276,-0.327 -0.492,-0.756 -0.652,-1.289 -0.159,-0.534 -0.239,-1.193 -0.239,-1.978 v -3.266 c 0,-0.77 0.08,-1.422 0.239,-1.955 0.16,-0.533 0.376,-0.964 0.652,-1.289 0.274,-0.326 0.607,-0.559 0.998,-0.7 0.39,-0.141 0.809,-0.211 1.259,-0.211 0.289,0 0.592,0.008 0.911,0.023 0.318,0.014 0.63,0.029 0.933,0.043 0.304,0.015 0.589,0.035 0.858,0.056 0.267,0.023 0.495,0.041 0.683,0.056 h 0.043 c 0.159,0 0.272,-0.044 0.337,-0.133 0.065,-0.089 0.098,-0.2 0.098,-0.334 v -1.488 c 0,-0.163 -0.044,-0.278 -0.131,-0.345" /><path
           id="path881"
           style="fill:#344d63;fill-opacity:1;fill-rule:nonzero;stroke:none"
           d="m 528.0527,117.5849 c -0.029,0.134 -0.065,0.226 -0.108,0.278 -0.044,0.052 -0.123,0.077 -0.24,0.077 -0.115,0 -0.195,-0.025 -0.238,-0.077 -0.044,-0.052 -0.08,-0.144 -0.108,-0.278 l -1.563,-6.599 h 3.819 z m 6.25,-13.353 c 0,-0.119 -0.036,-0.211 -0.108,-0.278 -0.073,-0.066 -0.166,-0.099 -0.283,-0.099 h -2.299 c -0.102,0 -0.189,0.036 -0.261,0.111 -0.072,0.073 -0.123,0.162 -0.153,0.266 l -0.998,4.221 h -4.991 l -0.999,-4.221 c -0.029,-0.104 -0.079,-0.193 -0.151,-0.266 -0.073,-0.075 -0.16,-0.111 -0.261,-0.111 h -2.301 c -0.115,0 -0.21,0.033 -0.282,0.099 -0.072,0.067 -0.108,0.159 -0.108,0.278 0,0.014 0.004,0.03 0.01,0.044 0.008,0.015 0.011,0.038 0.011,0.067 l 3.56,13.93 c 0.131,0.519 0.318,0.926 0.564,1.223 0.246,0.296 0.51,0.522 0.792,0.678 0.282,0.155 0.571,0.255 0.868,0.3 0.297,0.044 0.561,0.066 0.792,0.066 0.232,0 0.496,-0.022 0.792,-0.066 0.297,-0.045 0.587,-0.145 0.868,-0.3 0.283,-0.156 0.547,-0.382 0.793,-0.678 0.246,-0.297 0.434,-0.704 0.564,-1.223 l 3.56,-13.93 c 0,-0.029 0.003,-0.052 0.01,-0.067 0.008,-0.014 0.011,-0.03 0.011,-0.044" /><path
           id="path883"
           style="fill:#344d63;fill-opacity:1;fill-rule:nonzero;stroke:none"
           d="m 544.9814,113.7334 c 0,0.831 -0.098,1.518 -0.292,2.059 -0.194,0.542 -0.461,0.972 -0.8,1.291 -0.339,0.319 -0.739,0.542 -1.2,0.668 -0.461,0.126 -0.966,0.189 -1.514,0.189 -0.403,0 -0.749,-0.008 -1.037,-0.022 -0.288,-0.015 -0.548,-0.03 -0.778,-0.044 v -11.554 c 0.23,-0.015 0.49,-0.029 0.778,-0.044 0.288,-0.016 0.634,-0.022 1.037,-0.022 0.548,0 1.053,0.062 1.514,0.189 0.461,0.126 0.861,0.349 1.2,0.667 0.339,0.319 0.606,0.75 0.8,1.291 0.194,0.542 0.292,1.228 0.292,2.06 z m 1.248,-8.313 c -1.18,-1.163 -2.861,-1.744 -5.046,-1.744 -0.39,0 -0.8,0.008 -1.226,0.022 -0.427,0.015 -0.839,0.038 -1.238,0.067 -0.397,0.03 -0.759,0.06 -1.085,0.089 -0.325,0.029 -0.568,0.059 -0.726,0.089 -0.189,0.029 -0.33,0.096 -0.424,0.2 -0.094,0.103 -0.141,0.267 -0.141,0.488 v 14.954 c 0,0.221 0.047,0.384 0.141,0.488 0.094,0.103 0.235,0.171 0.424,0.2 0.158,0.029 0.401,0.06 0.726,0.089 0.326,0.029 0.688,0.059 1.085,0.089 0.399,0.029 0.811,0.052 1.238,0.066 0.426,0.015 0.836,0.023 1.226,0.023 2.185,0 3.866,-0.581 5.046,-1.745 1.179,-1.163 1.769,-2.847 1.769,-5.054 v -3.266 c 0,-2.208 -0.59,-3.892 -1.769,-5.055" /><path
           id="path885"
           style="fill:#344d63;fill-opacity:1;fill-rule:nonzero;stroke:none"
           d="m 560.3145,104.121 c -0.065,-0.06 -0.178,-0.104 -0.337,-0.134 -0.174,-0.029 -0.365,-0.062 -0.575,-0.099 -0.21,-0.038 -0.47,-0.071 -0.781,-0.101 -0.312,-0.029 -0.688,-0.055 -1.128,-0.077 -0.442,-0.023 -0.989,-0.033 -1.639,-0.033 -0.709,0 -1.369,0.059 -1.978,0.177 -0.61,0.119 -1.141,0.344 -1.592,0.678 -0.452,0.333 -0.81,0.796 -1.072,1.389 -0.262,0.592 -0.393,1.362 -0.393,2.31 v 7.754 c 0,0.949 0.131,1.718 0.393,2.311 0.262,0.593 0.62,1.055 1.072,1.388 0.451,0.333 0.982,0.56 1.592,0.678 0.609,0.118 1.269,0.178 1.978,0.178 0.65,0 1.197,-0.011 1.639,-0.033 0.44,-0.023 0.816,-0.048 1.128,-0.078 0.311,-0.03 0.571,-0.063 0.781,-0.1 0.21,-0.037 0.401,-0.07 0.575,-0.1 0.159,-0.03 0.272,-0.074 0.337,-0.133 0.064,-0.06 0.098,-0.17 0.098,-0.333 v -1.422 c 0,-0.119 -0.044,-0.223 -0.131,-0.312 -0.086,-0.089 -0.188,-0.133 -0.304,-0.133 h -4.427 c -0.637,0 -1.082,-0.133 -1.335,-0.4 -0.254,-0.267 -0.38,-0.771 -0.38,-1.511 v -2.399 h 5.882 c 0.116,0 0.217,-0.045 0.304,-0.134 0.087,-0.089 0.13,-0.192 0.13,-0.31 v -1.6 c 0,-0.119 -0.043,-0.223 -0.13,-0.312 -0.087,-0.088 -0.188,-0.132 -0.304,-0.132 h -5.882 v -2.867 c 0,-0.741 0.126,-1.244 0.38,-1.51 0.253,-0.267 0.698,-0.401 1.335,-0.401 h 4.427 c 0.116,0 0.218,-0.044 0.304,-0.133 0.087,-0.088 0.131,-0.193 0.131,-0.311 v -1.422 c 0,-0.163 -0.034,-0.274 -0.098,-0.333" /><path
           id="path887"
           style="fill:#344d63;fill-opacity:1;fill-rule:nonzero;stroke:none"
           d="m 577.1436,103.9316 c -0.072,-0.052 -0.159,-0.077 -0.26,-0.077 h -2.192 c -0.102,0 -0.185,0.044 -0.249,0.133 -0.066,0.088 -0.098,0.191 -0.098,0.309 v 10.311 c 0,0.148 -0.022,0.222 -0.065,0.222 -0.015,0 -0.051,-0.044 -0.109,-0.133 l -2.084,-4.244 c -0.072,-0.119 -0.17,-0.21 -0.293,-0.277 -0.123,-0.067 -0.256,-0.1 -0.401,-0.1 h -2.192 c -0.145,0 -0.279,0.033 -0.402,0.1 -0.123,0.067 -0.22,0.158 -0.293,0.277 l -2.104,4.244 c -0.059,0.089 -0.095,0.133 -0.11,0.133 -0.043,0 -0.064,-0.074 -0.064,-0.222 v -10.311 c 0,-0.118 -0.033,-0.221 -0.098,-0.309 -0.065,-0.089 -0.148,-0.133 -0.25,-0.133 h -2.191 c -0.102,0 -0.189,0.025 -0.261,0.077 -0.072,0.052 -0.108,0.137 -0.108,0.256 v 15.286 c 0,0.252 0.083,0.463 0.249,0.633 0.167,0.171 0.373,0.256 0.619,0.256 h 1.779 c 0.174,0 0.333,-0.048 0.478,-0.145 0.144,-0.097 0.253,-0.225 0.325,-0.389 l 3.277,-6.798 c 0.058,-0.104 0.102,-0.182 0.131,-0.234 0.029,-0.052 0.065,-0.077 0.109,-0.077 0.043,0 0.079,0.025 0.108,0.077 0.028,0.052 0.072,0.13 0.13,0.234 l 3.277,6.798 c 0.072,0.164 0.181,0.292 0.325,0.389 0.145,0.097 0.304,0.145 0.478,0.145 h 1.78 c 0.245,0 0.451,-0.085 0.618,-0.256 0.166,-0.17 0.25,-0.381 0.25,-0.633 v -15.286 c 0,-0.119 -0.037,-0.204 -0.109,-0.256" /><path
           id="path889"
           style="fill:#344d63;fill-opacity:1;fill-rule:nonzero;stroke:none"
           d="m 591.707,120.0293 c 0,-0.03 -0.015,-0.089 -0.043,-0.178 l -3.299,-7.71 c -0.203,-0.488 -0.412,-0.855 -0.63,-1.099 -0.216,-0.244 -0.448,-0.419 -0.694,-0.523 v -6.22 c 0,-0.12 -0.04,-0.223 -0.12,-0.312 -0.08,-0.089 -0.179,-0.133 -0.295,-0.133 h -2.187 c -0.116,0 -0.214,0.044 -0.294,0.133 -0.081,0.089 -0.121,0.192 -0.121,0.312 v 6.22 c -0.246,0.104 -0.477,0.279 -0.694,0.523 -0.217,0.244 -0.427,0.611 -0.63,1.099 l -3.276,7.71 c -0.03,0.089 -0.044,0.148 -0.044,0.178 0,0.089 0.029,0.166 0.087,0.233 0.057,0.067 0.144,0.1 0.261,0.1 h 2.409 c 0.1,0 0.187,-0.037 0.259,-0.111 0.073,-0.075 0.123,-0.156 0.153,-0.244 l 2.612,-6.622 c 0.072,-0.192 0.142,-0.314 0.208,-0.366 0.066,-0.052 0.12,-0.078 0.164,-0.078 0.058,0 0.12,0.026 0.186,0.078 0.065,0.052 0.134,0.174 0.207,0.366 l 2.613,6.622 c 0.028,0.088 0.079,0.169 0.151,0.244 0.073,0.074 0.16,0.111 0.261,0.111 h 2.388 c 0.115,0 0.206,-0.033 0.27,-0.1 0.066,-0.067 0.098,-0.144 0.098,-0.233" /><path
           id="path891"
           style="fill:#344d63;fill-opacity:1;fill-rule:nonzero;stroke:none"
           d="m 401.1543,146.9013 c -0.159,0 -0.239,0.084 -0.239,0.254 v 2.183 c 0,0.168 0.08,0.253 0.239,0.253 h 2.015 c 0.159,0 0.24,-0.085 0.24,-0.253 v -2.183 c 0,-0.17 -0.081,-0.254 -0.24,-0.254 z m -0.791,-10.41 c 0.768,0 1.335,0.229 1.703,0.688 0.367,0.458 0.551,1.129 0.551,2.014 v 2.126 h -2.134 c -0.687,0 -1.239,-0.184 -1.654,-0.551 -0.416,-0.367 -0.624,-1.042 -0.624,-2.026 0,-0.767 0.192,-1.334 0.576,-1.701 0.383,-0.367 0.911,-0.55 1.582,-0.55 m -2.326,10.41 c -0.159,0 -0.239,0.084 -0.239,0.254 v 2.183 c 0,0.168 0.08,0.253 0.239,0.253 h 2.014 c 0.16,0 0.241,-0.085 0.241,-0.253 v -2.183 c 0,-0.17 -0.081,-0.254 -0.241,-0.254 z m 4.58,-3.067 v 1.081 c 0,0.167 0.08,0.251 0.24,0.251 h 2.206 c 0.159,0 0.239,-0.083 0.239,-0.25 v -8.126 c 0,-0.502 0.092,-0.849 0.277,-1.041 0.183,-0.193 0.475,-0.288 0.875,-0.288 h 0.911 c 0.64,0 0.959,-0.424 0.959,-1.271 0,-0.508 -0.076,-0.843 -0.228,-1.003 -0.152,-0.161 -0.395,-0.241 -0.731,-0.241 h -1.942 c -0.784,0 -1.395,0.143 -1.834,0.432 -0.441,0.287 -0.732,0.795 -0.875,1.523 -0.336,-0.308 -0.737,-0.539 -1.2,-0.693 -0.464,-0.155 -0.951,-0.232 -1.463,-0.232 -0.623,0 -1.21,0.093 -1.762,0.278 -0.552,0.183 -1.031,0.468 -1.439,0.854 -0.407,0.386 -0.731,0.876 -0.971,1.471 -0.24,0.594 -0.36,1.311 -0.36,2.15 0,0.972 0.132,1.785 0.396,2.439 0.263,0.654 0.615,1.177 1.055,1.572 0.44,0.393 0.939,0.674 1.498,0.842 0.56,0.168 1.144,0.252 1.751,0.252 z" /><path
           id="path893"
           style="fill:#344d63;fill-opacity:1;fill-rule:nonzero;stroke:none"
           d="m 412.2324,128.1181 c -0.16,0 -0.24,0.085 -0.24,0.254 v 2.183 c 0,0.169 0.08,0.253 0.24,0.253 h 2.014 c 0.16,0 0.24,-0.084 0.24,-0.253 v -2.183 c 0,-0.169 -0.08,-0.254 -0.24,-0.254 z m -3.117,0 c -0.16,0 -0.24,0.085 -0.24,0.254 v 2.183 c 0,0.169 0.08,0.253 0.24,0.253 h 2.013 c 0.161,0 0.241,-0.084 0.241,-0.253 v -2.183 c 0,-0.169 -0.08,-0.254 -0.241,-0.254 z m 3.72,6.123 c -0.222,-0.491 -0.559,-0.83 -1.011,-1.016 -0.451,-0.186 -1.059,-0.279 -1.822,-0.279 h -2.23 c -0.319,0 -0.56,0.08 -0.72,0.241 -0.159,0.16 -0.239,0.478 -0.239,0.952 0,0.492 0.075,0.834 0.228,1.029 0.152,0.195 0.395,0.293 0.731,0.293 h 1.559 c 0.287,0 0.506,0.046 0.659,0.137 0.151,0.092 0.263,0.234 0.336,0.426 0.071,0.193 0.115,0.443 0.132,0.752 0.015,0.31 0.023,0.69 0.023,1.141 v 5.214 c 0,0.099 0.044,0.167 0.131,0.2 0.087,0.033 0.179,0.05 0.273,0.05 h 2.044 c 0.158,0 0.239,-0.083 0.239,-0.25 v -6.117 c 0,-0.501 0.179,-0.885 0.539,-1.153 0.359,-0.267 0.842,-0.4 1.451,-0.4 h 0.407 c 0.319,0 0.56,-0.094 0.72,-0.28 0.159,-0.186 0.239,-0.5 0.239,-0.94 0,-0.491 -0.076,-0.83 -0.228,-1.016 -0.152,-0.186 -0.395,-0.279 -0.731,-0.279 -0.623,0 -1.167,0.08 -1.631,0.241 -0.464,0.16 -0.83,0.512 -1.099,1.054" /><path
           id="path895"
           style="fill:#344d63;fill-opacity:1;fill-rule:nonzero;stroke:none"
           d="m 424.5566,145.8954 c -0.159,0 -0.239,0.085 -0.239,0.254 v 2.183 c 0,0.168 0.08,0.253 0.239,0.253 h 2.303 c 0.159,0 0.239,-0.085 0.239,-0.253 v -2.183 c 0,-0.169 -0.08,-0.254 -0.239,-0.254 z m 0.974,-4.576 c -0.898,0 -1.78,-0.143 -2.646,-0.426 -0.865,-0.284 -1.635,-0.593 -2.308,-0.926 v -3.405 c 0,-0.201 -0.008,-0.393 -0.024,-0.576 -0.017,-0.184 -0.04,-0.36 -0.072,-0.526 h 5.218 c 0.689,0 1.247,0.012 1.671,0.038 0.425,0.025 0.753,0.116 0.986,0.275 0.232,0.158 0.389,0.409 0.47,0.751 0.08,0.342 0.12,0.822 0.12,1.44 0,0.534 -0.053,1.009 -0.157,1.427 -0.104,0.417 -0.289,0.768 -0.552,1.051 -0.265,0.284 -0.615,0.501 -1.047,0.651 -0.433,0.151 -0.986,0.226 -1.659,0.226 m -4.954,1.106 c 0.752,0.385 1.585,0.717 2.499,0.993 0.913,0.277 1.858,0.415 2.835,0.415 1.042,0 1.935,-0.142 2.679,-0.427 0.745,-0.285 1.355,-0.688 1.827,-1.207 0.473,-0.52 0.817,-1.153 1.034,-1.899 0.215,-0.746 0.324,-1.571 0.324,-2.476 0,-1.006 -0.084,-1.827 -0.252,-2.464 -0.167,-0.638 -0.44,-1.137 -0.815,-1.496 -0.376,-0.362 -0.86,-0.604 -1.451,-0.73 -0.592,-0.126 -1.31,-0.188 -2.158,-0.188 h -4.484 c -0.256,0 -0.539,0.004 -0.851,0.012 -0.311,0.008 -0.616,0.029 -0.911,0.063 -0.296,0.033 -0.564,0.075 -0.804,0.126 -0.239,0.05 -0.416,0.125 -0.527,0.226 -0.273,-0.202 -0.58,-0.323 -0.923,-0.365 -0.345,-0.042 -0.748,-0.062 -1.211,-0.062 h -1.799 c -0.319,0 -0.559,0.08 -0.72,0.241 -0.159,0.16 -0.239,0.478 -0.239,0.952 0,0.542 0.076,0.898 0.228,1.067 0.152,0.169 0.395,0.254 0.731,0.254 h 1.247 c 0.255,0 0.455,0.038 0.6,0.113 0.143,0.075 0.252,0.196 0.323,0.363 0.072,0.167 0.112,0.38 0.12,0.639 0.008,0.258 0.012,0.572 0.012,0.939 v 5.716 c 0,0.167 0.079,0.251 0.237,0.251 h 2.211 c 0.158,0 0.238,-0.084 0.238,-0.251 z" /><path
           id="path897"
           style="fill:#344d63;fill-opacity:1;fill-rule:nonzero;stroke:none"
           d="m 437.4824,133.1972 c 0,-0.168 -0.079,-0.251 -0.237,-0.251 h -2.211 c -0.158,0 -0.238,0.083 -0.238,0.251 v 16.596 c 0,0.167 0.08,0.251 0.238,0.251 h 2.211 c 0.158,0 0.237,-0.084 0.237,-0.251 z" /><path
           id="path899"
           style="fill:#344d63;fill-opacity:1;fill-rule:nonzero;stroke:none"
           d="m 441.9902,143.1298 c 0,0.167 0.079,0.251 0.237,0.251 h 2.211 c 0.158,0 0.238,-0.083 0.238,-0.25 v -6.116 c 0,-0.502 0.179,-0.886 0.54,-1.154 0.359,-0.267 0.842,-0.4 1.45,-0.4 h 0.408 c 0.319,0 0.559,-0.094 0.719,-0.279 0.16,-0.187 0.24,-0.5 0.24,-0.941 0,-0.491 -0.076,-0.83 -0.228,-1.015 -0.152,-0.187 -0.396,-0.28 -0.731,-0.28 -0.544,0 -1.012,0.051 -1.403,0.153 -0.392,0.101 -0.724,0.33 -0.995,0.685 v -0.478 c 0,-0.906 -0.072,-1.7 -0.214,-2.38 -0.143,-0.68 -0.376,-1.246 -0.701,-1.699 -0.326,-0.453 -0.757,-0.793 -1.297,-1.02 -0.539,-0.226 -1.209,-0.34 -2.008,-0.34 h -0.888 c -0.16,0 -0.239,0.084 -0.239,0.251 v 2.012 c 0,0.168 0.079,0.251 0.239,0.251 h 0.527 c 0.464,0 0.824,0.085 1.08,0.252 0.255,0.168 0.444,0.415 0.563,0.741 0.12,0.327 0.192,0.722 0.216,1.183 0.024,0.461 0.036,0.993 0.036,1.596 z" /><path
           id="path901"
           style="fill:#344d63;fill-opacity:1;fill-rule:nonzero;stroke:none"
           d="m 451.8447,145.8954 c -0.16,0 -0.24,0.085 -0.24,0.254 v 2.183 c 0,0.168 0.08,0.253 0.24,0.253 h 2.014 c 0.16,0 0.24,-0.085 0.24,-0.253 v -2.183 c 0,-0.169 -0.08,-0.254 -0.24,-0.254 z m -3.117,0 c -0.16,0 -0.24,0.085 -0.24,0.254 v 2.183 c 0,0.168 0.08,0.253 0.24,0.253 h 2.013 c 0.161,0 0.241,-0.085 0.241,-0.253 v -2.183 c 0,-0.169 -0.08,-0.254 -0.241,-0.254 z m 3.552,-11.654 c -0.222,-0.492 -0.559,-0.83 -1.011,-1.016 -0.451,-0.186 -1.059,-0.279 -1.822,-0.279 h -2.23 c -0.319,0 -0.559,0.08 -0.72,0.241 -0.159,0.16 -0.239,0.478 -0.239,0.952 0,0.491 0.075,0.834 0.228,1.028 0.152,0.196 0.395,0.293 0.731,0.293 h 1.559 c 0.287,0 0.506,0.046 0.659,0.138 0.151,0.092 0.264,0.234 0.336,0.426 0.071,0.192 0.115,0.442 0.132,0.752 0.015,0.309 0.023,0.689 0.023,1.14 v 5.214 c 0,0.1 0.044,0.167 0.131,0.201 0.087,0.033 0.179,0.049 0.273,0.049 h 2.044 c 0.158,0 0.239,-0.083 0.239,-0.25 v -6.116 c 0,-0.502 0.179,-0.886 0.539,-1.153 0.359,-0.268 0.842,-0.401 1.451,-0.401 h 0.407 c 0.319,0 0.56,-0.093 0.72,-0.279 0.159,-0.186 0.239,-0.5 0.239,-0.94 0,-0.492 -0.076,-0.83 -0.228,-1.016 -0.152,-0.186 -0.395,-0.279 -0.731,-0.279 -0.623,0 -1.167,0.08 -1.631,0.241 -0.464,0.16 -0.83,0.512 -1.099,1.054" /><path
           id="path903"
           style="fill:#344d63;fill-opacity:1;fill-rule:nonzero;stroke:none"
           d="m 460.6689,145.8954 c -0.16,0 -0.239,0.085 -0.239,0.254 v 2.183 c 0,0.168 0.079,0.253 0.239,0.253 h 2.303 c 0.159,0 0.239,-0.085 0.239,-0.253 v -2.183 c 0,-0.169 -0.08,-0.254 -0.239,-0.254 z m 1.151,-4.576 c -0.735,0 -1.295,-0.256 -1.678,-0.767 -0.384,-0.511 -0.576,-1.228 -0.576,-2.15 0,-1.107 0.184,-1.882 0.552,-2.326 0.367,-0.445 0.935,-0.666 1.702,-0.666 0.784,0 1.359,0.214 1.727,0.641 0.367,0.427 0.552,1.169 0.552,2.225 0,2.028 -0.76,3.043 -2.279,3.043 m -6.666,-8.373 c -0.336,0 -0.579,0.083 -0.731,0.251 -0.152,0.168 -0.228,0.511 -0.228,1.031 0,0.436 0.08,0.745 0.24,0.931 0.16,0.183 0.4,0.276 0.719,0.276 h 2.278 c -0.367,0.721 -0.551,1.65 -0.551,2.791 0,1.023 0.132,1.894 0.396,2.615 0.264,0.721 0.625,1.299 1.081,1.735 0.457,0.435 0.987,0.755 1.587,0.956 0.601,0.201 1.23,0.301 1.887,0.301 0.705,0 1.362,-0.1 1.972,-0.301 0.608,-0.201 1.134,-0.521 1.574,-0.956 0.44,-0.436 0.785,-1.014 1.033,-1.735 0.248,-0.721 0.373,-1.592 0.373,-2.615 0,-0.989 -0.12,-1.819 -0.361,-2.489 -0.24,-0.671 -0.577,-1.216 -1.01,-1.635 -0.432,-0.419 -0.953,-0.717 -1.562,-0.893 -0.609,-0.175 -1.283,-0.263 -2.02,-0.263 z" /><path
           id="path905"
           style="fill:#344d63;fill-opacity:1;fill-rule:nonzero;stroke:none"
           d="m 476.3037,135.4609 h 2.51 c 0.402,0 0.696,0.096 0.881,0.288 0.185,0.192 0.278,0.54 0.278,1.042 v 13.002 c 0,0.168 0.079,0.251 0.237,0.251 h 2.21 c 0.158,0 0.238,-0.084 0.238,-0.251 v -13.679 c 0,-1.09 -0.213,-1.89 -0.642,-2.401 -0.428,-0.512 -1.141,-0.767 -2.14,-0.767 h -10.526 c -0.16,0 -0.24,0.084 -0.24,0.254 v 2.007 c 0,0.169 0.08,0.254 0.24,0.254 h 4.268 v 10.812 c 0,0.167 0.08,0.251 0.238,0.251 h 2.21 c 0.158,0 0.238,-0.084 0.238,-0.251 z" /><path
           id="path907"
           style="fill:#344d63;fill-opacity:1;fill-rule:nonzero;stroke:none"
           d="m 488.7246,133.1972 c 0,-0.168 -0.079,-0.251 -0.237,-0.251 h -2.211 c -0.158,0 -0.238,0.083 -0.238,0.251 v 16.596 c 0,0.167 0.08,0.251 0.238,0.251 h 2.211 c 0.158,0 0.237,-0.084 0.237,-0.251 z" /><path
           id="path909"
           style="fill:#344d63;fill-opacity:1;fill-rule:nonzero;stroke:none"
           d="m 504.957,146.9013 c -0.159,0 -0.239,0.084 -0.239,0.254 v 2.183 c 0,0.168 0.08,0.253 0.239,0.253 h 2.015 c 0.159,0 0.24,-0.085 0.24,-0.253 v -2.183 c 0,-0.17 -0.081,-0.254 -0.24,-0.254 z m -0.791,-10.41 c 0.768,0 1.335,0.229 1.703,0.688 0.367,0.458 0.551,1.129 0.551,2.014 v 2.126 h -2.134 c -0.687,0 -1.239,-0.184 -1.654,-0.551 -0.416,-0.367 -0.624,-1.042 -0.624,-2.026 0,-0.767 0.192,-1.334 0.576,-1.701 0.383,-0.367 0.911,-0.55 1.582,-0.55 m -2.326,10.41 c -0.159,0 -0.239,0.084 -0.239,0.254 v 2.183 c 0,0.168 0.08,0.253 0.239,0.253 h 2.014 c 0.16,0 0.241,-0.085 0.241,-0.253 v -2.183 c 0,-0.17 -0.081,-0.254 -0.241,-0.254 z m 4.58,-3.067 v 1.081 c 0,0.167 0.08,0.251 0.24,0.251 h 2.206 c 0.159,0 0.239,-0.083 0.239,-0.25 v -8.126 c 0,-0.502 0.092,-0.849 0.277,-1.041 0.183,-0.193 0.475,-0.288 0.875,-0.288 h 0.911 c 0.64,0 0.959,-0.424 0.959,-1.271 0,-0.508 -0.076,-0.843 -0.228,-1.003 -0.152,-0.161 -0.395,-0.241 -0.731,-0.241 h -1.942 c -0.784,0 -1.395,0.143 -1.834,0.432 -0.441,0.287 -0.732,0.795 -0.875,1.523 -0.336,-0.308 -0.737,-0.539 -1.2,-0.693 -0.464,-0.155 -0.951,-0.232 -1.463,-0.232 -0.623,0 -1.21,0.093 -1.762,0.278 -0.552,0.183 -1.031,0.468 -1.439,0.854 -0.407,0.386 -0.731,0.876 -0.971,1.471 -0.24,0.594 -0.36,1.311 -0.36,2.15 0,0.972 0.132,1.785 0.396,2.439 0.263,0.654 0.615,1.177 1.055,1.572 0.44,0.393 0.939,0.674 1.498,0.842 0.56,0.168 1.144,0.252 1.751,0.252 z" /><path
           id="path911"
           style="fill:#344d63;fill-opacity:1;fill-rule:nonzero;stroke:none"
           d="m 516.0352,128.1181 c -0.16,0 -0.24,0.085 -0.24,0.254 v 2.183 c 0,0.169 0.08,0.253 0.24,0.253 h 2.014 c 0.16,0 0.24,-0.084 0.24,-0.253 v -2.183 c 0,-0.169 -0.08,-0.254 -0.24,-0.254 z m -3.117,0 c -0.16,0 -0.24,0.085 -0.24,0.254 v 2.183 c 0,0.169 0.08,0.253 0.24,0.253 h 2.013 c 0.161,0 0.241,-0.084 0.241,-0.253 v -2.183 c 0,-0.169 -0.08,-0.254 -0.241,-0.254 z m 3.72,6.123 c -0.222,-0.491 -0.559,-0.83 -1.011,-1.016 -0.451,-0.186 -1.059,-0.279 -1.822,-0.279 h -2.23 c -0.319,0 -0.56,0.08 -0.72,0.241 -0.159,0.16 -0.239,0.478 -0.239,0.952 0,0.492 0.075,0.834 0.228,1.029 0.152,0.195 0.395,0.293 0.731,0.293 h 1.559 c 0.287,0 0.506,0.046 0.659,0.137 0.151,0.092 0.263,0.234 0.336,0.426 0.071,0.193 0.115,0.443 0.132,0.752 0.015,0.31 0.023,0.69 0.023,1.141 v 5.214 c 0,0.099 0.044,0.167 0.131,0.2 0.087,0.033 0.179,0.05 0.273,0.05 h 2.044 c 0.158,0 0.239,-0.083 0.239,-0.25 v -6.117 c 0,-0.501 0.179,-0.885 0.539,-1.153 0.359,-0.267 0.842,-0.4 1.451,-0.4 h 0.407 c 0.319,0 0.56,-0.094 0.72,-0.28 0.159,-0.186 0.239,-0.5 0.239,-0.94 0,-0.491 -0.076,-0.83 -0.228,-1.016 -0.152,-0.186 -0.395,-0.279 -0.731,-0.279 -0.623,0 -1.167,0.08 -1.631,0.241 -0.464,0.16 -0.83,0.512 -1.099,1.054" /><path
           id="path913"
           style="fill:#344d63;fill-opacity:1;fill-rule:nonzero;stroke:none"
           d="m 526.7422,141.3193 c -0.764,0 -1.328,-0.259 -1.693,-0.776 -0.367,-0.518 -0.549,-1.27 -0.549,-2.254 0,-1.069 0.182,-1.836 0.549,-2.304 0.365,-0.468 0.929,-0.701 1.693,-0.701 0.779,0 1.352,0.238 1.718,0.714 0.365,0.475 0.548,1.239 0.548,2.291 0,2.02 -0.755,3.03 -2.266,3.03 m -4.928,-2.825 c 0.016,0.969 0.149,1.792 0.397,2.469 0.248,0.676 0.593,1.228 1.033,1.655 0.441,0.426 0.958,0.734 1.551,0.927 0.593,0.192 1.242,0.289 1.947,0.289 0.705,0 1.362,-0.101 1.971,-0.301 0.609,-0.201 1.133,-0.519 1.575,-0.953 0.44,-0.435 0.784,-1.011 1.033,-1.73 0.248,-0.718 0.372,-1.588 0.372,-2.607 v -0.439 c 0,-0.142 -0.008,-0.28 -0.023,-0.414 0.015,-0.702 0.172,-1.199 0.468,-1.491 0.294,-0.293 0.634,-0.438 1.018,-0.438 h 0.695 c 0.321,0 0.56,-0.094 0.72,-0.28 0.159,-0.186 0.24,-0.5 0.24,-0.94 0,-0.491 -0.076,-0.83 -0.228,-1.016 -0.153,-0.186 -0.396,-0.279 -0.732,-0.279 -0.271,0 -0.555,0.008 -0.85,0.024 -0.296,0.018 -0.592,0.073 -0.888,0.166 -0.296,0.094 -0.577,0.229 -0.843,0.408 -0.266,0.177 -0.504,0.427 -0.714,0.75 -0.431,-0.542 -0.971,-0.932 -1.619,-1.168 -0.648,-0.238 -1.38,-0.356 -2.195,-0.356 -0.8,0 -1.52,0.114 -2.159,0.342 -0.64,0.228 -1.176,0.605 -1.608,1.131 -0.161,-0.272 -0.354,-0.492 -0.581,-0.661 -0.225,-0.17 -0.459,-0.301 -0.699,-0.395 -0.24,-0.094 -0.488,-0.157 -0.744,-0.19 -0.256,-0.034 -0.496,-0.051 -0.72,-0.051 h -0.839 c -0.319,0 -0.559,0.097 -0.719,0.292 -0.16,0.194 -0.24,0.52 -0.24,0.977 0,0.492 0.077,0.822 0.228,0.991 0.152,0.17 0.395,0.255 0.731,0.255 h 0.936 c 0.383,0 0.727,0.162 1.03,0.488 0.304,0.326 0.464,0.924 0.481,1.793 -0.017,0.134 -0.025,0.259 -0.025,0.375 z" /><path
           id="path915"
           style="fill:#344d63;fill-opacity:1;fill-rule:nonzero;stroke:none"
           d="m 537.832,128.1181 c -0.16,0 -0.239,0.085 -0.239,0.254 v 2.183 c 0,0.169 0.079,0.253 0.239,0.253 h 2.015 c 0.159,0 0.239,-0.084 0.239,-0.253 v -2.183 c 0,-0.169 -0.08,-0.254 -0.239,-0.254 z m -3.117,0 c -0.16,0 -0.239,0.085 -0.239,0.254 v 2.183 c 0,0.169 0.079,0.253 0.239,0.253 h 2.014 c 0.16,0 0.24,-0.084 0.24,-0.253 v -2.183 c 0,-0.169 -0.08,-0.254 -0.24,-0.254 z m -0.911,4.828 c -0.32,0 -0.56,0.08 -0.72,0.241 -0.159,0.16 -0.239,0.47 -0.239,0.927 0,0.491 0.076,0.838 0.227,1.041 0.153,0.203 0.396,0.306 0.732,0.306 h 1.558 c 0.4,0 0.692,0.095 0.875,0.287 0.184,0.192 0.277,0.539 0.277,1.041 v 6.342 c 0,0.167 0.079,0.25 0.237,0.25 h 2.211 c 0.157,0 0.237,-0.084 0.237,-0.251 v -7.016 c 0,-1.09 -0.214,-1.891 -0.641,-2.401 -0.429,-0.512 -1.142,-0.767 -2.141,-0.767 z" /><path
           id="path917"
           style="fill:#344d63;fill-opacity:1;fill-rule:nonzero;stroke:none"
           d="m 551.6914,137.246 c 0,-0.839 -0.071,-1.53 -0.214,-2.075 -0.142,-0.545 -0.356,-0.985 -0.641,-1.32 -0.286,-0.335 -0.65,-0.57 -1.093,-0.704 -0.445,-0.134 -0.97,-0.201 -1.576,-0.201 h -5.564 c -0.16,0 -0.239,0.084 -0.239,0.254 v 2.007 c 0,0.169 0.079,0.254 0.239,0.254 h 4.46 c 0.432,0 0.775,0.033 1.031,0.099 0.256,0.068 0.452,0.18 0.588,0.338 0.136,0.16 0.224,0.364 0.264,0.614 0.04,0.25 0.059,0.559 0.059,0.926 v 1.678 c 0,1.469 -0.815,2.203 -2.445,2.203 h -2.878 c -0.16,0 -0.239,0.084 -0.239,0.251 v 2.012 c 0,0.168 0.079,0.252 0.239,0.252 h 3.837 c 1.276,0 2.291,-0.365 3.043,-1.094 0.753,-0.729 1.129,-1.865 1.129,-3.407 z" /><path
           id="path919"
           style="fill:#344d63;fill-opacity:1;fill-rule:nonzero;stroke:none"
           d="m 554.7607,149.7929 c 0,0.167 0.079,0.251 0.237,0.251 h 2.211 c 0.158,0 0.238,-0.083 0.238,-0.251 v -13.002 c 0,-0.502 0.091,-0.85 0.276,-1.042 0.184,-0.192 0.475,-0.288 0.875,-0.288 h 0.839 c 0.319,0 0.559,-0.098 0.72,-0.293 0.159,-0.194 0.239,-0.529 0.239,-1.003 0,-0.524 -0.076,-0.859 -0.228,-1.003 -0.152,-0.144 -0.395,-0.216 -0.731,-0.216 h -1.895 c -0.998,0 -1.712,0.255 -2.139,0.767 -0.428,0.511 -0.642,1.311 -0.642,2.401 z" /><path
           id="path921"
           style="fill:#344d63;fill-opacity:1;fill-rule:nonzero;stroke:none"
           d="m 564.376,143.5068 c 0.847,-0.017 1.622,-0.08 2.324,-0.189 0.702,-0.109 1.298,-0.328 1.789,-0.656 0.491,-0.327 0.872,-0.802 1.142,-1.424 0.268,-0.621 0.404,-1.445 0.404,-2.469 v -1.513 c 0,-0.84 -0.072,-1.533 -0.215,-2.079 -0.142,-0.547 -0.356,-0.987 -0.641,-1.323 -0.285,-0.337 -0.65,-0.572 -1.093,-0.706 -0.444,-0.134 -0.969,-0.202 -1.576,-0.202 h -7.05 c -0.319,0 -0.56,0.097 -0.72,0.292 -0.159,0.195 -0.239,0.538 -0.239,1.029 0,0.491 0.076,0.812 0.228,0.965 0.152,0.153 0.395,0.229 0.731,0.229 h 5.947 c 0.431,0 0.775,0.033 1.031,0.1 0.255,0.067 0.452,0.175 0.587,0.325 0.136,0.15 0.224,0.35 0.264,0.6 0.04,0.251 0.06,0.568 0.06,0.952 v 1.351 c 0,0.751 -0.196,1.306 -0.587,1.665 -0.392,0.359 -1.012,0.538 -1.859,0.538 h -3.86 c -0.16,0 -0.24,0.085 -0.24,0.254 v 1.753 c 0,0.118 0.048,0.229 0.143,0.33 0.097,0.102 0.176,0.195 0.241,0.279 l 5.179,6.386 c 0.096,0.117 0.199,0.143 0.312,0.075 l 1.551,-1.357 c 0.126,-0.101 0.158,-0.218 0.094,-0.352 z" /><path
           id="path923"
           style="fill:#344d63;fill-opacity:1;fill-rule:nonzero;stroke:none"
           d="m 576.5332,149.416 c -0.111,0.184 -0.203,0.397 -0.275,0.641 -0.073,0.243 -0.109,0.506 -0.109,0.792 0,0.285 0.044,0.574 0.133,0.868 0.087,0.293 0.235,0.561 0.443,0.804 0.207,0.243 0.471,0.444 0.791,0.604 0.32,0.159 0.711,0.238 1.175,0.238 0.447,0 0.848,-0.088 1.199,-0.263 0.352,-0.176 0.631,-0.408 0.839,-0.692 0.048,-0.1 0.048,-0.176 0,-0.226 l -0.623,-0.629 c -0.095,-0.084 -0.176,-0.092 -0.24,-0.025 -0.159,0.167 -0.335,0.306 -0.527,0.414 -0.192,0.11 -0.4,0.164 -0.623,0.164 -0.369,0 -0.657,-0.122 -0.864,-0.365 -0.208,-0.243 -0.311,-0.549 -0.311,-0.917 0,-0.336 0.084,-0.625 0.251,-0.868 0.168,-0.243 0.34,-0.423 0.515,-0.54 h 2.422 c 0.097,0 0.145,-0.06 0.145,-0.176 v -0.93 c 0,-0.118 -0.048,-0.176 -0.145,-0.176 h -5.083 c -0.095,0 -0.144,0.058 -0.144,0.176 v 0.93 c 0,0.116 0.049,0.176 0.144,0.176 z m 3.046,-13.955 h 2.51 c 0.402,0 0.696,0.096 0.881,0.288 0.185,0.192 0.278,0.54 0.278,1.042 v 13.002 c 0,0.168 0.079,0.251 0.237,0.251 h 2.21 c 0.158,0 0.238,-0.084 0.238,-0.251 v -13.679 c 0,-1.09 -0.213,-1.89 -0.642,-2.401 -0.428,-0.512 -1.141,-0.767 -2.14,-0.767 h -10.526 c -0.16,0 -0.24,0.084 -0.24,0.254 v 2.007 c 0,0.169 0.08,0.254 0.24,0.254 h 4.268 v 10.811 c 0,0.168 0.079,0.252 0.238,0.252 h 2.21 c 0.158,0 0.238,-0.084 0.238,-0.252 z" /><path
           id="path925"
           style="fill:#344d63;fill-opacity:1;fill-rule:nonzero;stroke:none"
           d="m 591.999,133.1972 c 0,-0.168 -0.079,-0.251 -0.237,-0.251 h -2.211 c -0.158,0 -0.238,0.083 -0.238,0.251 v 16.596 c 0,0.167 0.08,0.251 0.238,0.251 h 2.211 c 0.158,0 0.237,-0.084 0.237,-0.251 z" /></g></g></g></svg>
